<svg id="Capa_1" data-name="Capa 1" xmlns="http://www.w3.org/2000/svg" viewBox="0 0 22.491 22.7259">
  <defs>
    <style>
      .cls-1 {
        opacity: 0.07;
      }

      .cls-2 {
        fill: #2971b3;
      }
    </style>
  </defs>
  <g class="cls-1">
    <polygon class="cls-2" points="4.407 12.076 4.407 12.076 4.407 12.076 4.407 12.076"/>
    <g>
      <path class="cls-2" d="M18.5693,16.642a2.4357,2.4357,0,0,0-2.412,2.0478L15.4489,23h1.0947l.68-4.1349a1.3591,1.3591,0,0,1,1.3459-1.1427H23v-1.08Z" transform="translate(-0.509 -0.2741)"/>
      <path class="cls-2" d="M21.9217,11.8758c-.2144.0334-.7815.1431-.9551.1769a.1617.1617,0,0,0-.1253.119,2.17,2.17,0,0,1-.3738.7415,2.5444,2.5444,0,0,1-1.14.6739,1.451,1.451,0,0,0-.8608.4589c-.1425.1378-.2708.2822-.3949.4219a2.5551,2.5551,0,0,1-.5522.5228.7556.7556,0,0,1-.1862.033,1.189,1.189,0,0,0-.2786.0524c-.0127.0046-.0257.01-.039.0162a1.6239,1.6239,0,0,0-.1892-.0907,1.5589,1.5589,0,0,1-.2055-.1c-.0847-.0537-.15-.1024-.2077-.1456a1.2334,1.2334,0,0,0-.2487-.1572.2716.2716,0,0,0-.2622.031.8819.8819,0,0,1,.0916-.377.7411.7411,0,0,1,.2855-.3252c.0224-.0149.0454-.03.0684-.0478a3.0685,3.0685,0,0,0,.4368-.4006,1.6446,1.6446,0,0,1,.1574-.1557c.1048-.0854.1724-.1473.2232-.1939a.9787.9787,0,0,1,.0829-.0717.9937.9937,0,0,0,.333-.3167,3.5877,3.5877,0,0,0,.2121-.58.1339.1339,0,1,0-.2572-.0744l-.0242.0808a.1792.1792,0,0,1-.0246-.0375.9779.9779,0,0,1,.01-.5991c.0287-.1005.1408-.4057.142-.4089a.1139.1139,0,1,0-.2138-.0786c-.0119.0322-.1168.3181-.1473.4248a1.4169,1.4169,0,0,0-.0543.5568,1.3883,1.3883,0,0,1-.5036-.1261.8152.8152,0,0,1-.3964-.6948c-.0069-.0455-.0134-.0886-.0217-.1281a5.6671,5.6671,0,0,0-.3245-.824.1141.1141,0,0,0-.1516-.0544.114.114,0,0,0-.0545.1516,5.9548,5.9548,0,0,1,.3076.7735c.0069.0326.0126.0711.0192.1153a1.9267,1.9267,0,0,0,.0748.3413.7213.7213,0,0,1-.104.2194l-.0141.0107a.4512.4512,0,0,0-.1218.12.3982.3982,0,0,0-.041.1517c-.0023.0188-.0046.0363-.0077.0525a.9887.9887,0,0,0-.1808-.3645,2.9155,2.9155,0,0,0-.4572-.3566.1139.1139,0,1,0-.1254.19,2.8188,2.8188,0,0,1,.406.31.8647.8647,0,0,1,.1675.45.28.28,0,0,1-.0291.0706,2.2784,2.2784,0,0,1-.4432.385.114.114,0,0,0-.0279.1587.1141.1141,0,0,0,.0658.0451.1114.1114,0,0,0,.0275.0034.1145.1145,0,0,0,.0655-.0206,3.0463,3.0463,0,0,0,.46-.3906.3028.3028,0,0,1,.15.0062c.2644.0488.4076.4177.4088.4211a.1141.1141,0,0,0,.0793.0707.1133.1133,0,0,0,.0673-.0038.1142.1142,0,0,0,.067-.1465,1.1841,1.1841,0,0,0-.2192-.3521c.0775-.0646.19-.1552.2927-.2269a1.536,1.536,0,0,1,.2855-.1689,2.1819,2.1819,0,0,0,.353.0437.5448.5448,0,0,0,.1358.1473,1.2745,1.2745,0,0,1-.0813.1959.7372.7372,0,0,1-.2571.2364,1.0748,1.0748,0,0,0-.1113.0943c-.047.0431-.1114.1022-.2113.1836a1.8112,1.8112,0,0,0-.1844.1811,2.8375,2.8375,0,0,1-.4016.3689c-.0184.0138-.0376.0266-.0579.04a.9124.9124,0,0,0-.2671.25,3.1081,3.1081,0,0,1-1.6208-.0913,6.4015,6.4015,0,0,1-.15-2.6284.1139.1139,0,0,0-.2272-.0164c-.0127.1752-.0432.6523-.0442,1.1678a6.7713,6.7713,0,0,0-.1015-.9286c-.0084-.0364-.018-.0739-.0281-.1136a1.3759,1.3759,0,0,1-.0107-.8633c.0545-.15.29-.2692.3756-.3027a.1619.1619,0,0,0,.1011-.1239.72.72,0,0,1,.4486-.4858,4.9593,4.9593,0,0,1,2.1979.0635,6.6063,6.6063,0,0,0,2.357.1052c.4258-.1114,1.0179-.3322,1.6448-.566l.0053-.002c.3922-.1462.7978-.2974,1.2035-.4379.336-.1163.6658-.2187.9869-.3186V8.1609H20.2639a1.238,1.238,0,0,1-1.2189-1.455l.846-4.75A1.4307,1.4307,0,0,0,18.4825.2741H12.0339a1.6761,1.6761,0,0,0-1.66,1.4091L9.4787,7.1308A1.2345,1.2345,0,0,1,8.2629,8.1679l-5.4071.0252A1.6778,1.6778,0,0,0,1.2014,9.6093L.5635,13.5754v0l-.0291.1812.0008,0-.0262.166s2.0584-.7011,2.5951-.8453c.2862-.0768.6985-.163,1.136-.2543.598-.1248,1.2164-.2539,1.6209-.3816.1817-.0573.3959-.1267.6227-.2l.0056-.0018c.6217-.2014,1.3955-.4519,2.1558-.668l.0259-.0074a4.671,4.671,0,0,1,2.0047-.31,2.9439,2.9439,0,0,1,.9866.8153,6.6484,6.6484,0,0,1,.9509,1.1753,3.7351,3.7351,0,0,1,.3045.896l.0088.0477a.5067.5067,0,0,1,.01.2568,1.9615,1.9615,0,0,1-.459.4022.7928.7928,0,0,0,.0524-.0737c.2428-.3967.0486-.9763-.1075-1.442a2.1955,2.1955,0,0,0-.359-.6329,2.2175,2.2175,0,0,1-.2945-.4826.1144.1144,0,0,0-.1488-.0619.1141.1141,0,0,0-.0618.1488,2.4316,2.4316,0,0,0,.3218.5312,1.98,1.98,0,0,1,.3263.57c.141.4209.3165.9447.1293,1.2507a2.5229,2.5229,0,0,1-.9283.6949,1.25,1.25,0,0,1-.9173.0612,1.38,1.38,0,0,1-.4911-.24c-.0332-.023-.0645-.0447-.0957-.0646a3.9258,3.9258,0,0,0-.3814-.1917c-.0929-.0431-.2041-.0946-.27-.1309a.2454.2454,0,0,1,.0257-.0373c.0061-.0068.0389-.0354.072-.0619l.0027-.0027c.053-.0264.0943-.0476.1216-.064a1.5583,1.5583,0,0,0,.4716-.41.4809.4809,0,0,0,.1828.0924,2.411,2.411,0,0,0,.3872.07,1.7756,1.7756,0,0,0-.0275.2565,4.8312,4.8312,0,0,0,.0554.5477.1136.1136,0,0,0,.0852.0935.1067.1067,0,0,0,.0274.0035l.0171-.0014a.1141.1141,0,0,0,.0956-.13,4.8348,4.8348,0,0,1-.0529-.5079,1.6945,1.6945,0,0,1,.0356-.2828l.01-.0036.0011.003a.4219.4219,0,0,0,.3142.208l.0388.0089c.1361.0284.5346.0916.5386.0922l.018.0014a.1139.1139,0,0,0,.1123-.0961.1146.1146,0,0,0-.0949-.13c-.0163-.0025-.4018-.0639-.5272-.09-.1389-.0292-.1848-.0705-.19-.0826a.3208.3208,0,0,1-.0243-.096,2.8213,2.8213,0,0,0,.215-.83.1142.1142,0,0,0-.1-.1266.1138.1138,0,0,0-.1267.1,2.4374,2.4374,0,0,1-.2008.7733l-.0041.0066a.1472.1472,0,0,1-.0332.0378.11.11,0,0,1-.0443.0164.1142.1142,0,0,0-.0255.0033,1.53,1.53,0,0,1-.4462-.0661.308.308,0,0,1-.1544-.1078,2.1326,2.1326,0,0,0-.0328-.362.114.114,0,0,0-.2248.0377,1.4863,1.4863,0,0,1,.0273.3484.9847.9847,0,0,1-.4422.4272c-.0311.0188-.098.0518-.184.0942-.1465.0722-.3677.1813-.6166.322-.1673.0946-.302.1865-.4332.2762a2.78,2.78,0,0,1-.855.4377.1139.1139,0,0,0,.0053.22h0a.1141.1141,0,0,0,.06-.0015,3.0067,3.0067,0,0,0,.9181-.4678c.1266-.0864.2574-.1759.4167-.2659.1243-.07.24-.1314.3433-.1848a.1394.1394,0,0,0,.0448.0746,2.1265,2.1265,0,0,0,.3718.1949c.11.051.2221.1031.3009.1462.0067.0159.0157.0351.0259.0554a.114.114,0,0,0-.0326.0573,2.3531,2.3531,0,0,1-.1785.4824,4.6391,4.6391,0,0,1-.3284.5174.114.114,0,0,0,.0642.1781h0a.1136.1136,0,0,0,.1192-.043,4.744,4.744,0,0,0,.3481-.5493,2.6,2.6,0,0,0,.173-.4426,2.5755,2.5755,0,0,0,.52.3672,2.4132,2.4132,0,0,0-.096.3,1.8778,1.8778,0,0,0-.0214.5281c-.2661-.023-.5806-.0719-.87-.117-.2338-.0364-.4546-.0708-.62-.086a1.72,1.72,0,0,0-.2058-.0016A2.8263,2.8263,0,0,1,7.48,16.3232a2.13,2.13,0,0,1-.4866-.28,1.6,1.6,0,0,0-.5246-.28,2.4031,2.4031,0,0,0-1.0045.081,11.9634,11.9634,0,0,0-2.3953.9083c-.3243.1761-1.4524.97-1.4524.97H6.1415a1.3638,1.3638,0,0,1,1.3525,1.54L7.0076,23H8.0971l.4683-3.5982a2.4444,2.4444,0,0,0-2.4239-2.76H4.87a.1973.1973,0,0,1,.0628-.1891,2.6035,2.6035,0,0,1,.6686-.3126,2.0854,2.0854,0,0,1,.7958-.0638,1.4144,1.4144,0,0,1,.4124.2311,2.3967,2.3967,0,0,0,.5642.3194,3.1153,3.1153,0,0,0,1.2623.2092,1.4913,1.4913,0,0,1,.1665,0c.1528.014.3684.0476.6.0835a7.5413,7.5413,0,0,0,1.2831.132,1.1234,1.1234,0,0,0,.6415-.2173.6088.6088,0,0,1,.0945-.0572A.9844.9844,0,0,1,11.71,16.73a.8008.8008,0,0,0,.8506-.6188.7111.7111,0,0,0-.2868-.7381,3.5105,3.5105,0,0,0,.9437-.77.7035.7035,0,0,0,.0254-.4771l-.0078-.0418a4.0571,4.0571,0,0,0-.3378-.992,6.9027,6.9027,0,0,0-1-1.2436,3.0808,3.0808,0,0,0-1.1377-.9057l-.021-.0054a4.8962,4.8962,0,0,0-2.1549.3169l-.0259.0074c-.7676.2182-1.5458.47-2.175.674-.2253.073-.438.1419-.618.1986-.2247.071-.523.1433-.8479.2155l-.0015,0-.1142.025a9.187,9.187,0,0,1-2.3277.2538,1.6517,1.6517,0,0,1-.6335-.1824L2.268,9.7809a.6013.6013,0,0,1,.5928-.5075l5.4071-.0251A2.3121,2.3121,0,0,0,10.5448,7.306L11.44,1.8585a.6.6,0,0,1,.5937-.504h6.4486a.35.35,0,0,1,.3448.4117l-.8459,4.75A2.3174,2.3174,0,0,0,19.322,9.0411a1.6874,1.6874,0,0,1-.3437.2272,2.1984,2.1984,0,0,1-.9077.2053c-.3861-.03-.8065-.0944-1.22-.1577a4.9546,4.9546,0,0,0-2.3776-.0392,1.0781,1.0781,0,0,0-.6111.6372.9467.9467,0,0,0-.485.4588,1.6681,1.6681,0,0,0,.0013,1.053c.01.0371.0185.0725.0262.1062a7.0856,7.0856,0,0,1,.0976.9295,7.3472,7.3472,0,0,0,.1013.9605,3.9031,3.9031,0,0,0,.4418,1.2675.6472.6472,0,0,0,.2812.2179.5543.5543,0,0,0,.28.2733.7636.7636,0,0,0,.1133.0375.9908.9908,0,0,0,.403.01.3834.3834,0,0,0,.2522.0217,2.3589,2.3589,0,0,0,.35-.15,1.025,1.025,0,0,0,.2937.3136,1.0985,1.0985,0,0,0,.5539.1883.6958.6958,0,0,0,.2531-.051,1.5691,1.5691,0,0,0,.2022-.1012,1.3137,1.3137,0,0,1,.138-.071.9972.9972,0,0,1,.2027-.0345.8243.8243,0,0,0,.3059-.0707,2.734,2.734,0,0,0,.6384-.5914c.12-.1348.2436-.2744.3779-.4043a1.1482,1.1482,0,0,1,.6831-.3717,2.77,2.77,0,0,0,1.3425-.788,2.4215,2.4215,0,0,0,.408-.7676c.2-.0387.6671-.1281.8473-.1562.2183-.0341.5921-.0894,1.0286-.1531v-.3249C22.5412,11.7824,22.1491,11.84,21.9217,11.8758Zm-5.3922.321c-.1273.0887-.264.201-.3433.268a.5755.5755,0,0,0-.1806-.0676l-.0108-.002c.0091-.0093.0183-.0189.0278-.03a.4515.4515,0,0,0,.0957-.2554.3487.3487,0,0,1,.012-.066.5734.5734,0,0,1,.0637-.0538l.0144-.0111a.4179.4179,0,0,0,.1014-.1349.8942.8942,0,0,0,.3035.256l.0348.0169C16.6149,12.1382,16.5768,12.1638,16.53,12.1968Zm-6.0916,3.4353a1.8074,1.8074,0,0,0,.4025.064.887.887,0,0,1-.2324.0119A.4864.4864,0,0,1,10.4379,15.6321Zm1.2483.7773a1.2263,1.2263,0,0,0-.3867.07.8548.8548,0,0,0-.153.0886.8061.8061,0,0,1-.4762.1622c-.0383.0018-.08.0022-.1239.0013a.1117.1117,0,0,0,.0026-.0356,1.68,1.68,0,0,1,.0158-.45,2.1779,2.1779,0,0,1,.1013-.3069l.0069,0a3.1229,3.1229,0,0,0,1.1153-.3093,1.6234,1.6234,0,0,0,.1586-.1c.1053.0691.3708.2688.3049.489C12.1448,16.3764,11.9625,16.39,11.6862,16.4094Zm3.7475-1.5746c-.0655.0329-.15.0567-.2123.0825a.7429.7429,0,0,1-.49-.0331l-.0137-.0075c.087-.0056.189-.0148.2979-.03.1452-.02.4346-.0861.6183-.13l0,.0029A2.1877,2.1877,0,0,1,15.4337,14.8348Zm.2132-.3548c-.1688.04-.511.12-.6624.1412-.1709.0235-.2827.0805-.4252.0346a.5982.5982,0,0,1-.2613-.1653,1.586,1.586,0,0,1-.2018-.45.73.73,0,0,0,.2985.1365,2.8071,2.8071,0,0,0,.6436.0613c.2556,0,.5069-.02.6844-.0374A1.1138,1.1138,0,0,0,15.6469,14.48Zm1.0658.7689c-.0977.0366-.2084.0781-.53-.1125a.9023.9023,0,0,1-.22-.2627.2672.2672,0,0,1,.03-.0286c.0358-.0292.0664-.0438.0807-.0377a1.0616,1.0616,0,0,1,.204.1312c.0607.0454.13.0969.222.1555a1.7322,1.7322,0,0,0,.2376.1169l.03.0131A.5839.5839,0,0,1,16.7127,15.2489Z" transform="translate(-0.509 -0.2741)"/>
    </g>
  </g>
</svg>
